<svg width="40" height="40" viewBox="0 0 40 40" fill="none" xmlns="http://www.w3.org/2000/svg">
<g clip-path="url(#clip0_864_4812)">
<mask id="mask0_864_4812" style="mask-type:luminance" maskUnits="userSpaceOnUse" x="0" y="0" width="40" height="40">
<path d="M40 0H0V40H40V0Z" fill="white"/>
</mask>
<g mask="url(#mask0_864_4812)">
<path d="M16.9664 15.5327C15.5997 13.6493 13.4164 12.416 10.8998 12.416C6.71644 12.416 3.31641 15.816 3.31641 19.9993C3.31641 24.1826 6.71644 27.5826 10.8998 27.5826C13.7164 27.5826 16.3331 26.0993 17.7831 23.6826L19.9998 19.9993L22.1998 16.3159C23.6498 13.8993 26.2664 12.416 29.0831 12.416C33.2664 12.416 36.6664 15.816 36.6664 19.9993C36.6664 24.1826 33.2664 27.5826 29.0831 27.5826C26.5831 27.5826 24.3998 26.3493 23.0164 24.466" stroke="white" stroke-width="2.5" stroke-linecap="round" stroke-linejoin="round"/>
</g>
</g>
<defs>
<clipPath id="clip0_864_4812">
<rect width="40" height="40" fill="white"/>
</clipPath>
</defs>
</svg>
