<svg width="64" height="64" viewBox="0 0 64 64" fill="none" xmlns="http://www.w3.org/2000/svg">
<g clip-path="url(#clip0_2324_3731)">
<mask id="mask0_2324_3731" style="mask-type:luminance" maskUnits="userSpaceOnUse" x="0" y="0" width="64" height="64">
<path d="M64 0H0V64H64V0Z" fill="white"/>
</mask>
<g mask="url(#mask0_2324_3731)">
<path d="M53.334 38.002C56.6476 38.002 59.334 35.3156 59.334 32.002C59.334 28.6884 56.6476 26.002 53.334 26.002C50.0204 26.002 47.334 28.6884 47.334 32.002C47.334 35.3156 50.0204 38.002 53.334 38.002Z" fill="#859CAD"/>
<path d="M53.334 16.668C56.6476 16.668 59.334 13.9817 59.334 10.668C59.334 7.35426 56.6476 4.66797 53.334 4.66797C50.0204 4.66797 47.334 7.35426 47.334 10.668C47.334 13.9817 50.0204 16.668 53.334 16.668Z" fill="#859CAD"/>
<path d="M53.334 59.334C56.6476 59.334 59.334 56.6476 59.334 53.334C59.334 50.0204 56.6476 47.334 53.334 47.334C50.0204 47.334 47.334 50.0204 47.334 53.334C47.334 56.6476 50.0204 59.334 53.334 59.334Z" fill="#859CAD"/>
<path d="M10.6672 38.002C13.9809 38.002 16.6672 35.3156 16.6672 32.002C16.6672 28.6884 13.9809 26.002 10.6672 26.002C7.35353 26.002 4.66724 28.6884 4.66724 32.002C4.66724 35.3156 7.35353 38.002 10.6672 38.002Z" fill="#859CAD"/>
<path d="M50.6673 34.0013C51.7606 34.0013 52.6673 33.0946 52.6673 32.0013C52.6673 30.908 51.7606 30.0013 50.6673 30.0013H31.334V18.668C31.334 14.4546 33.1206 12.668 37.334 12.668H50.6673C51.7606 12.668 52.6673 11.7613 52.6673 10.668C52.6673 9.57464 51.7606 8.66797 50.6673 8.66797H37.334C30.8806 8.66797 27.334 12.2146 27.334 18.668V30.0013H13.334C12.2407 30.0013 11.334 30.908 11.334 32.0013C11.334 33.0946 12.2407 34.0013 13.334 34.0013H27.334V45.3346C27.334 51.788 30.8806 55.3346 37.334 55.3346H50.6673C51.7606 55.3346 52.6673 54.428 52.6673 53.3346C52.6673 52.2413 51.7606 51.3346 50.6673 51.3346H37.334C33.1206 51.3346 31.334 49.548 31.334 45.3346V34.0013H50.6673Z" fill="#859CAD"/>
</g>
</g>
<defs>
<clipPath id="clip0_2324_3731">
<rect width="64" height="64" fill="white"/>
</clipPath>
</defs>
</svg>
